<?xml version="1.0" encoding="UTF-8"?>
<svg id="a" data-name="Layer 1" xmlns="http://www.w3.org/2000/svg" width="4.999cm" height="5cm" xmlns:xlink="http://www.w3.org/1999/xlink" viewBox="0 0 141.704 141.732">
  <defs>
    <style>
      .d {
        fill: url(#b);
      }
    </style>
    <linearGradient id="b" x1=".145" y1="142.05" x2="1.145" y2="142.05" gradientTransform="translate(-20054.457 -.183) rotate(90) scale(110.099 -141.678)" gradientUnits="userSpaceOnUse">
      <stop offset="0" stop-color="#00c0f0"/>
      <stop offset="1" stop-color="#3161f3"/>
    </linearGradient>
  </defs>
  <path class="d" d="M141.596,94.702c-.11-6.931-5.129-12.011-11.912-12.023-20.868-.049-41.749-.061-62.617,.024-4.503,.012-8.158,1.951-10.416,6.048-1.08,1.963-1.534,4.098-1.546,6.318-.024,3.963,.037,7.925-.086,11.888-.123,3.546-2.564,6.281-5.962,6.968-3.791,.761-7.25-.822-8.857-4.037-.699-1.399-.81-2.883-.81-4.392V39.838c0-4.122,.233-8.269-1.779-12.219h60.384c.515,0,1.043,.037,1.558,.11,2.785,.368,4.785,1.828,5.974,4.368,.613,1.301,.687,2.712,.687,4.123,0,12.514,.012,25.027-.012,37.54-.012,.883,.233,1.08,1.08,1.055,3.202-.049,6.416-.049,9.63,0,.859,.012,1.141-.16,1.141-1.092-.037-12.232-.024-24.451-.024-36.67,0-1.571-.061-3.141-.307-4.699-.724-4.429-2.577-8.293-5.913-11.348-3.951-3.62-8.735-5.178-14.023-5.178-25.653-.012-51.305,0-76.959-.012-1.509,0-3.006,.123-4.503,.368C7.235,17.645,.598,25.067,.157,34.269c-.209,4.258-.148,8.526-.074,12.784,.11,6.453,4.086,10.931,10.465,11.864,2.896,.417,5.827,.086,8.735,.16,.626,.012,.442-.454,.442-.773,.012-3.411-.012-6.809,.025-10.219,0-.626-.147-.834-.822-.822-2.123,.049-4.257,0-6.379,.024-.478,0-.699-.086-.687-.638,.037-3.963-.024-7.925,.098-11.888,.098-3.055,1.681-5.312,4.491-6.465,2.859-1.178,5.716-.945,8.256,.994,2.258,1.73,2.883,4.147,2.883,6.87-.012,22.831,0,45.663,0,68.506,0,1.571,.049,3.141,.307,4.687,.712,4.441,2.564,8.305,5.888,11.36,3.951,3.632,8.735,5.19,14.023,5.19,24.279,.025,48.557,.012,72.836,.012,1.607,0,3.202-.098,4.785-.368,9.361-1.62,15.434-8.833,16.071-17.973,.307-4.282,.172-8.575,.098-12.87h-.001Zm-10.882,12.367c-.184,3.546-2.773,6.355-6.269,6.894-.613,.098-1.239,.147-1.865,.147h-57.379c.687-1.705,1.264-3.362,1.497-5.116,.135-1.104,.196-2.221,.209-3.325,.024-3.472,.024-6.943-.012-10.416,0-.65,.184-.81,.822-.81,20.77,.012,41.54,.012,62.298,.012,.466,0,.81-.037,.798,.626-.074,4,.11,7.999-.098,11.986h-.001Z"/>
</svg>