<?xml version="1.0" encoding="UTF-8"?>
<svg id="a" data-name="Layer 2" xmlns="http://www.w3.org/2000/svg" width="5cm" height="4.615cm" viewBox="0 0 141.732 130.805">
  <defs>
    <style>
      .b {
        fill: #1e3050;
      }
    </style>
  </defs>
  <path class="b" d="M48.727,12.227c12.348,0,24.696,0,37.044,0,1.636,0,3.226,.225,4.749,.868,1.953,.825,3.548,2.106,4.772,3.812,2.534,3.532,2.795,7.347,1.198,11.316-.584,1.451-1.606,2.63-2.668,3.767-3.082,3.301-6.15,6.614-9.226,9.92-2.634,2.83-5.273,5.655-7.907,8.486-2.603,2.798-5.2,5.602-7.809,8.395-.198,.211-.213,.431-.213,.685,.002,6.395,.002,12.79,.002,19.186,0,10.132,.002,20.264-.003,30.396,0,1.137-.101,2.261-.451,3.361-.464,1.458-1.285,2.661-2.391,3.702-2.923,2.75-6.794,3.091-10.135,1.528-1.531-.716-2.873-1.783-4.287-2.711-5.767-3.786-11.53-7.579-17.286-11.381-2.81-1.856-4.541-4.435-5.112-7.772-.142-.83-.219-1.665-.219-2.507,0-11.24-.001-22.479,.006-33.719,0-.359-.082-.627-.339-.901-3.518-3.76-7.023-7.532-10.529-11.303-4.409-4.744-8.817-9.489-13.224-14.235-1.023-1.102-2.108-2.15-2.93-3.424C.502,27.728-.057,25.572,.005,23.238c.065-2.436,.798-4.632,2.316-6.546,1.835-2.315,4.151-3.84,7.115-4.3,.806-.125,1.613-.165,2.425-.165,12.289,0,24.577,0,36.866,0Z"/>
  <path class="b" d="M115.166,72.045c-6.542,0-13.083,.034-19.624-.019-2.164-.018-4.153-.7-5.492-2.539-1.21-1.662-1.712-3.525-1.191-5.588,.371-1.47,1.034-2.749,2.261-3.688,1.02-.78,2.196-1.163,3.446-1.365,.527-.085,1.056-.094,1.588-.094,12.862,.002,25.723-.007,38.585,.013,1.759,.003,3.4,.486,4.781,1.655,1.218,1.032,1.871,2.396,2.101,3.924,.373,2.478-.399,4.593-2.336,6.222-.998,.84-2.218,1.179-3.481,1.391-.528,.088-1.057,.09-1.588,.09-6.35-.001-12.699,0-19.049,0Z"/>
  <path class="b" d="M115.196,116.355c-6.556,0-13.113,.035-19.669-.02-2.147-.018-4.121-.695-5.459-2.517-1.229-1.673-1.732-3.545-1.206-5.624,.372-1.471,1.04-2.748,2.268-3.683,1.021-.777,2.198-1.158,3.449-1.359,.543-.087,1.086-.091,1.632-.091,12.847,.001,25.694-.008,38.54,.012,1.76,.003,3.401,.491,4.778,1.664,1.214,1.034,1.865,2.4,2.091,3.93,.367,2.48-.409,4.593-2.348,6.217-.999,.837-2.22,1.174-3.484,1.384-.528,.087-1.057,.088-1.588,.087-6.335,0-12.67,0-19.004,0Z"/>
  <path class="b" d="M124.09,14.443c3.573,0,7.146-.03,10.719,.013,1.744,.021,3.371,.503,4.731,1.669,1.171,1.003,1.744,2.336,2.076,3.802,.491,2.165-.626,5.213-2.521,6.49-1.273,.858-2.692,1.3-4.199,1.306-7.235,.03-14.47,.049-21.704-.008-2.112-.017-4.06-.702-5.382-2.489-1.244-1.682-1.756-3.565-1.221-5.661,.371-1.454,1.029-2.718,2.239-3.651,1.018-.785,2.192-1.17,3.441-1.375,.526-.086,1.055-.097,1.587-.096,3.411,.004,6.821,.002,10.232,.002Z"/>
</svg>