<?xml version="1.0" encoding="UTF-8"?>
<svg id="a" data-name="Layer 1" xmlns="http://www.w3.org/2000/svg" width="5cm" height="4.615cm" viewBox="0 0 141.732 130.805">
  <defs>
    <style>
      .b {
        fill: #1e3050;
      }
    </style>
  </defs>
  <path class="b" d="M70.897,.001c19.554,0,39.109,0,58.663,0,2.007,0,3.961,.247,5.784,1.167,2.841,1.434,4.853,3.622,5.784,6.671,1.246,4.083,.579,7.89-2.118,11.223-6.808,8.414-13.665,16.788-20.501,25.179-5.911,7.256-11.82,14.514-17.729,21.772-2.497,3.067-4.988,6.14-7.493,9.2-.22,.269-.301,.531-.3,.869,.006,12.889-.003,32.6,.012,45.489,.003,2.456-.653,4.666-2.302,6.503-1.188,1.323-2.72,2.128-4.456,2.495-2.959,.627-5.588,.012-7.98-1.925-3.983-3.226-8.051-6.346-12.082-9.511-4.216-3.31-8.43-6.623-12.647-9.931-1.27-.996-2.368-2.144-3.215-3.525-1.162-1.896-1.598-3.974-1.596-6.171,.004-5.551,0-17.922,.004-23.472,0-.274-.031-.507-.222-.742-4.083-4.996-8.154-10.001-12.23-15.002-6.949-8.528-13.901-17.053-20.85-25.581-4.288-5.263-8.576-10.526-12.857-15.795C.294,16.122-.39,12.916,.203,9.425,.892,5.37,3.248,2.57,6.945,.894,8.545,.169,10.282,0,12.031,0c19.622,.002,39.244,.001,58.866,.001Zm8.816,112.831c0-.298,0-.48,0-.663,0-10.645,.004-28.111-.004-38.757-.001-1.747,.465-3.336,1.564-4.693,3.399-4.2,6.821-8.381,10.237-12.566,5.673-6.95,11.35-13.898,17.024-20.847,5.514-6.754,11.027-13.51,16.539-20.265,.45-.551,.893-1.109,1.364-1.695H15.293c.061,.092,.085,.136,.117,.175,5.239,6.422,10.478,12.844,15.717,19.265,5.538,6.787,11.076,13.574,16.614,20.361,4.121,5.051,8.216,10.125,12.378,15.143,1.284,1.548,1.898,3.232,1.889,5.227-.029,5.955-.006,18.731-.02,24.687,0,.382,.123,.614,.413,.844,3.91,3.102,7.811,6.214,11.714,9.324,1.837,1.464,3.674,2.927,5.598,4.459Z"/>
</svg>