<?xml version="1.0" encoding="UTF-8"?>
<svg id="a" data-name="Layer 1" xmlns="http://www.w3.org/2000/svg" width="5cm" height="4.615cm" viewBox="0 0 141.732 130.805">
  <defs>
    <style>
      .b {
        fill: #1e3050;
      }
    </style>
  </defs>
  <path class="b" d="M70.897,.001c19.554,0,39.109,0,58.663,0,2.007,0,3.961,.247,5.784,1.167,2.841,1.434,4.853,3.622,5.784,6.671,1.246,4.083,.579,7.89-2.118,11.223-6.808,8.414-13.665,16.788-20.501,25.179-5.911,7.256-11.82,14.514-17.729,21.772-2.497,3.067-4.988,6.14-7.493,9.2-.22,.269-.301,.531-.3,.869,.006,12.889-.003,32.6,.012,45.489,.003,2.456-.653,4.666-2.302,6.503-1.188,1.323-2.72,2.128-4.456,2.495-2.959,.627-5.588,.012-7.98-1.925-3.983-3.226-8.051-6.346-12.082-9.511-4.216-3.31-8.43-6.623-12.647-9.931-1.27-.996-2.368-2.144-3.215-3.525-1.162-1.896-1.598-3.974-1.596-6.171,.004-5.551,0-17.922,.004-23.472,0-.274-.031-.507-.222-.742-4.083-4.996-8.154-10.001-12.23-15.002-6.949-8.528-13.901-17.053-20.85-25.581-4.288-5.263-8.576-10.526-12.857-15.795C.294,16.122-.39,12.916,.203,9.425,.892,5.37,3.248,2.57,6.945,.894,8.545,.169,10.282,0,12.031,0c19.622,.002,39.244,.001,58.866,.001Z"/>
</svg>