<?xml version="1.0" encoding="UTF-8"?>
<svg data-name="Layer 2" xmlns="http://www.w3.org/2000/svg" width="4.999cm" height="3.884cm" viewBox="0 0 141.69 110.108">
  <defs>
    <linearGradient id="myGradient" gradientTransform="rotate(90)">
      <stop offset="0%" stop-color="#00c0f0" />
      <stop offset="100%" stop-color="#3161f3" />
    </linearGradient>
  </defs>
  <path fill="url(#myGradient)" class="nov" d="M141.596,78.892c-.11-6.932-5.129-12.012-11.913-12.024-20.87-.049-41.753-.061-62.623,.024-4.503,.012-8.159,1.951-10.417,6.049-1.08,1.963-1.534,4.098-1.546,6.319-.024,3.963,.037,7.926-.086,11.889-.123,3.546-2.564,6.282-5.963,6.969-3.791,.761-7.251-.822-8.858-4.037-.699-1.399-.81-2.883-.81-4.392V24.023c0-4.122,.233-8.27-1.779-12.22h60.39c.515,0,1.043,.037,1.558,.11,2.785,.368,4.785,1.828,5.975,4.368,.613,1.301,.687,2.712,.687,4.123,0,12.515,.012,25.029-.012,37.544-.012,.883,.233,1.08,1.08,1.055,3.202-.049,6.417-.049,9.631,0,.859,.012,1.141-.16,1.141-1.092-.037-12.233-.024-24.453-.024-36.673,0-1.571-.061-3.141-.307-4.699-.724-4.429-2.577-8.294-5.914-11.349C107.855,1.57,103.07,.012,97.782,.012c-25.655-.012-51.31,0-76.966-.012-1.509,0-3.006,.123-4.503,.368C7.222,1.828,.584,9.251,.143,18.453-.066,22.711-.005,26.98,.069,31.238c.11,6.454,4.086,10.932,10.466,11.865,2.896,.417,5.828,.086,8.736,.16,.626,.012,.442-.454,.442-.773,.012-3.411-.012-6.81,.025-10.22,0-.626-.147-.834-.822-.822-2.123,.049-4.257,0-6.38,.024-.478,0-.699-.086-.687-.638,.037-3.963-.024-7.926,.098-11.889,.098-3.055,1.681-5.313,4.491-6.466,2.859-1.178,5.717-.945,8.257,.994,2.258,1.73,2.883,4.147,2.883,6.871-.012,22.833,0,45.667,0,68.512,0,1.571,.049,3.141,.307,4.687,.712,4.441,2.564,8.306,5.889,11.361,3.951,3.632,8.736,5.19,14.024,5.19,24.281,.025,48.562,.012,72.843,.012,1.607,0,3.202-.098,4.785-.368,9.362-1.62,15.435-8.834,16.073-17.975,.307-4.282,.172-8.576,.098-12.871Zm-10.883,12.368c-.184,3.546-2.773,6.356-6.27,6.895-.613,.098-1.239,.147-1.865,.147h-57.384c.687-1.705,1.264-3.362,1.497-5.116,.135-1.104,.196-2.221,.209-3.325,.024-3.472,.024-6.944-.012-10.417,0-.65,.184-.81,.822-.81,20.772,.012,41.544,.012,62.304,.012,.466,0,.81-.037,.798,.626-.074,4,.11,8-.098,11.987Z"/>
</svg>