<?xml version="1.0" encoding="UTF-8"?>
<svg id="a" data-name="Layer 2" xmlns="http://www.w3.org/2000/svg" width="4.999cm" height="3.884cm" viewBox="0 0 141.69 110.108">
  <path d="M117.715,16.545c-.723-4.437-2.573-8.303-5.907-11.359C107.853,1.573,103.073,.014,97.787,.014h-2.586C83.234,.001,71.267,.001,59.299,.001H20.913c3.93,.215,7.682,1.623,10.953,4.107,2.079,1.597,4.412,4.057,5.907,7.695h-.177c.481,.936,.823,1.898,1.089,2.86,.057,.241,.131,.466,.179,.715,.063,.241,.114,.482,.152,.723,.051,.279,.089,.558,.127,.849,.025,.127,.038,.254,.051,.393,.063,.482,.101,.989,.127,1.509,.025,.304,.038,.621,.038,.938s.013,.621,.013,.938v7.733h.013v61.23c0,1.509,.101,2.992,.811,4.386,1.597,3.22,5.058,4.805,8.849,4.044,3.397-.685,5.844-3.423,5.971-6.972,.114-3.968,.063-7.923,.089-11.891,0-2.218,.456-4.348,1.534-6.313,2.269-4.107,5.92-6.034,10.421-6.047,1.458,0,3.055-.013,4.779-.013,9.508-.038,19.016-.051,28.523-.051,5.882,0,11.777,.013,17.659,.025V20.056c-.025-1.179-.114-2.358-.304-3.512Z"/>
  <path d="M139.314,78.637c1.311,0,2.373,1.063,2.373,2.373v4.536c0,2.079-.038,4.145-.19,6.212-.634,9.14-6.706,16.366-16.074,17.976-1.166,.203-2.345,.304-3.537,.355h-.051c-24.86,0-49.707,0-74.554-.013,5.058-.089,9.647-1.673,13.463-5.172,2.066-1.902,3.562-4.133,4.564-6.605,.431-1.078,.786-2.206,1.04-3.372,.101-.456,.19-.913,.266-1.382,.052-.318,.091-.638,.126-.959,.046-.458,.097-.916,.115-1.374,.038-.456,.051-.9,.051-1.356,.013-.33,.013-.672,.013-1.002v-3.797c0-3.546,2.874-6.42,6.42-6.42h65.975Z"/>
  <path d="M27.569,19.841v11.625h-9.635c-.101,0-.203,0-.292-.013-3.131-.139-5.654-2.662-5.781-5.806,0-2.231,.013-4.462,.089-6.706,.089-3.055,1.673-5.312,4.488-6.465,1.141-.469,2.282-.71,3.398-.71,1.686,0,3.334,.545,4.855,1.711,2.117,1.61,2.802,3.841,2.878,6.364Z"/>
</svg>