<?xml version="1.0" encoding="UTF-8"?>
<svg id="a" data-name="Layer 1" xmlns="http://www.w3.org/2000/svg" width="4.678cm" height="4.681cm" viewBox="0 0 132.597 132.681">
  <path d="M130.117,118.227l-32.646-32.645c6.48-8.895,10.312-19.842,10.312-31.69C107.783,24.128,83.655,0,53.891,0S0,24.128,0,53.891s24.128,53.892,53.891,53.892c11.804,0,22.714-3.806,31.592-10.242l32.661,32.661c1.653,1.652,3.819,2.479,5.986,2.479s4.334-.827,5.987-2.48c3.306-3.306,3.306-8.667,0-11.974Zm-76.226-27.044c-20.562,0-37.291-16.729-37.291-37.291S33.329,16.6,53.891,16.6s37.291,16.729,37.291,37.291-16.729,37.291-37.291,37.291Z"/>
</svg>