<?xml version="1.0" encoding="UTF-8"?>
<svg id="a" data-name="Layer 1" xmlns="http://www.w3.org/2000/svg" width="4.678cm" height="4.681cm" viewBox="0 0 132.597 132.681">
  <path d="M130.672,121.947l-34.571-34.571c7.306-9.197,11.682-20.827,11.682-33.485C107.783,24.128,83.655,0,53.891,0S0,24.128,0,53.891s24.128,53.892,53.891,53.892c12.615,0,24.209-4.346,33.391-11.608l34.581,34.581c1.217,1.216,2.811,1.824,4.404,1.824s3.188-.608,4.404-1.824c2.433-2.433,2.433-6.376,0-8.809Zm-76.781-26.621c-22.847,0-41.435-18.588-41.435-41.435S31.044,12.457,53.891,12.457s41.435,18.588,41.435,41.435-18.588,41.435-41.435,41.435Z"/>
</svg>