<?xml version="1.0" encoding="UTF-8"?>
<svg id="a" data-name="Layer 2" xmlns="http://www.w3.org/2000/svg" width="5cm" height="4.685cm" viewBox="0 0 141.732 132.794">
  <path d="M135.705,16.176h-61.239C71.85,6.859,63.299,0,53.157,0s-18.692,6.859-21.309,16.176H5.979c-3.301,0-5.979,2.667-5.979,5.979s2.679,5.979,5.979,5.979H31.851c2.62,9.312,11.168,16.166,21.307,16.166s18.687-6.854,21.306-16.166h61.241c3.301,0,5.979-2.679,5.979-5.979s-2.679-5.979-5.979-5.979ZM53.157,31.003c-4.889,0-8.853-3.963-8.853-8.853s3.963-8.853,8.853-8.853,8.853,3.964,8.853,8.853-3.963,8.853-8.853,8.853Z"/>
  <path d="M135.705,60.423h-16.992c-2.617-9.317-11.167-16.176-21.309-16.176s-18.692,6.859-21.309,16.176H5.979c-3.301,0-5.979,2.667-5.979,5.979s2.679,5.979,5.979,5.979H76.097c2.62,9.312,11.168,16.166,21.307,16.166s18.687-6.854,21.306-16.166h16.995c3.301,0,5.979-2.679,5.979-5.979s-2.679-5.979-5.979-5.979Zm-38.301,14.827c-4.889,0-8.853-3.963-8.853-8.853s3.963-8.853,8.853-8.853,8.853,3.964,8.853,8.853-3.963,8.853-8.853,8.853Z"/>
  <path d="M135.705,104.669H66.096c-2.617-9.317-11.167-16.176-21.309-16.176s-18.692,6.859-21.309,16.176H5.979c-3.301,0-5.979,2.667-5.979,5.979s2.679,5.979,5.979,5.979H23.48c2.62,9.312,11.168,16.166,21.307,16.166s18.687-6.854,21.306-16.166h69.612c3.301,0,5.979-2.679,5.979-5.979s-2.679-5.979-5.979-5.979Zm-90.919,14.827c-4.889,0-8.853-3.963-8.853-8.853s3.963-8.853,8.853-8.853,8.853,3.964,8.853,8.853-3.963,8.853-8.853,8.853Z"/>
</svg>