<?xml version="1.0" encoding="UTF-8"?>
<svg id="a" data-name="Layer 2" xmlns="http://www.w3.org/2000/svg" width="5cm" height="4.685cm" viewBox="0 0 141.732 132.794">
  <path d="M132.883,13.306h-59.43C70.031,5.484,62.227,0,53.157,0s-16.874,5.484-20.296,13.306H8.861C3.97,13.306,.012,17.265,.012,22.156s3.958,8.849,8.849,8.849h24.005c3.424,7.816,11.225,13.296,20.291,13.296s16.867-5.48,20.291-13.296h59.434c4.879,0,8.849-3.97,8.849-8.849s-3.97-8.849-8.849-8.849ZM53.157,31.003c-4.889,0-8.853-3.963-8.853-8.853s3.963-8.853,8.853-8.853,8.853,3.964,8.853,8.853-3.963,8.853-8.853,8.853Z"/>
  <path d="M132.883,57.553h-15.183c-3.422-7.822-11.226-13.306-20.296-13.306s-16.874,5.484-20.296,13.306H8.861C3.97,57.553,.012,61.511,.012,66.402s3.958,8.849,8.849,8.849H77.113c3.424,7.816,11.225,13.296,20.291,13.296s16.867-5.48,20.291-13.296h15.188c4.879,0,8.849-3.97,8.849-8.849s-3.97-8.849-8.849-8.849Zm-35.479,17.697c-4.889,0-8.853-3.963-8.853-8.853s3.963-8.853,8.853-8.853,8.853,3.964,8.853,8.853-3.963,8.853-8.853,8.853Z"/>
  <path d="M132.883,101.787H65.077c-3.425-7.815-11.225-13.294-20.29-13.294s-16.865,5.479-20.29,13.294H8.861C3.97,101.787,.012,105.757,.012,110.648s3.958,8.849,8.849,8.849h15.634c3.424,7.816,11.225,13.296,20.291,13.296s16.867-5.48,20.291-13.296h67.805c4.879,0,8.849-3.97,8.849-8.849s-3.97-8.861-8.849-8.861Zm-88.096,17.709c-4.889,0-8.853-3.963-8.853-8.853s3.963-8.853,8.853-8.853,8.853,3.964,8.853,8.853-3.963,8.853-8.853,8.853Z"/>
</svg>