<?xml version="1.0" encoding="UTF-8"?>
<svg id="a" data-name="Layer 1" xmlns="http://www.w3.org/2000/svg" width="4.994cm" height="5cm" viewBox="0 0 141.566 141.732">
  <path d="M91.014,71.005c0,18.102,.01,36.203-.009,54.305-.004,3.736-.903,7.223-3.168,10.284-2.936,3.967-7.061,5.749-11.795,5.962-4.024,.181-8.075,.313-12.109-.172-6.989-.84-12.318-6.139-13.162-13.207-.142-1.191-.208-2.398-.208-3.597-.011-36.011-.012-72.021-.005-108.032,0-4.05,.981-7.809,3.605-10.993C57.099,1.995,61.053,.337,65.524,.159c4.027-.16,8.079-.323,12.11,.173,7.079,.871,12.422,6.257,13.184,13.347,.128,1.193,.188,2.399,.188,3.599,.012,17.909,.008,35.818,.008,53.727Zm-25.283-.294v3.177c0,17.039,.015,34.079-.031,51.118-.003,1.226,.321,1.53,1.507,1.479,2.306-.099,4.624-.116,6.928,.004,1.359,.071,1.741-.26,1.739-1.69-.046-35.956-.037-71.912-.037-107.867,0-.241-.029-.485,.005-.721,.11-.776-.24-.971-.975-.96-2.502,.038-5.008,.082-7.508-.014-1.269-.049-1.669,.25-1.665,1.614,.052,17.954,.035,35.908,.035,53.861Z"/>
  <path d="M101.106,80.826c0-14.732-.01-29.463,.007-44.195,.004-3.684,.862-7.146,3.067-10.168,2.932-4.017,7.089-5.869,11.888-6.082,4.025-.179,8.079-.327,12.109,.17,7.091,.875,12.425,6.247,13.191,13.34,.129,1.193,.189,2.399,.189,3.599,.01,29.222,.01,58.445,.006,87.667,0,3.586-.778,6.971-2.826,9.968-2.91,4.258-7.171,6.205-12.137,6.431-4.024,.183-8.075,.314-12.109-.172-7.001-.844-12.32-6.13-13.169-13.2-.143-1.191-.207-2.398-.208-3.597-.014-14.587-.009-29.174-.009-43.761Zm25.284,.21v-17.472c0-8.856-.034-17.713,.037-26.568,.01-1.323-.379-1.59-1.596-1.539-2.306,.097-4.623,.104-6.929-.001-1.292-.059-1.655,.285-1.652,1.626,.044,25.991,.033,51.982,.033,77.973,0,3.369,.055,6.74-.031,10.107-.029,1.131,.335,1.352,1.374,1.319,2.404-.076,4.816-.098,7.218,.006,1.248,.054,1.585-.263,1.58-1.555-.053-14.632-.033-29.264-.033-43.896Z"/>
  <path d="M40.463,101.25c0,8.04,.017,16.08-.008,24.119-.011,3.533-.829,6.859-2.859,9.81-2.895,4.208-7.115,6.13-12.02,6.373-4.023,.199-8.077,.337-12.108-.166-7.125-.89-12.335-6.026-13.239-13.123-.145-1.142-.214-2.301-.215-3.452-.014-15.935-.021-31.87,0-47.805,.005-3.631,.856-7.052,3.018-10.04,2.949-4.076,7.149-5.944,12.002-6.149,4.025-.17,8.078-.31,12.11,.178,7.011,.849,12.4,6.321,13.13,13.405,.123,1.194,.181,2.399,.183,3.599,.016,7.751,.008,15.502,.008,23.253Zm-15.175,.014c0-7.989-.015-15.977,.019-23.966,.004-.977-.097-1.454-1.283-1.406-2.595,.105-5.197,.061-7.795,.016-.793-.014-1.068,.181-1.067,1.026,.024,16.17,.024,32.34,0,48.51-.001,.841,.267,1.044,1.064,1.029,2.55-.046,5.103-.069,7.651,.007,1.091,.032,1.449-.225,1.44-1.395-.057-7.94-.03-15.881-.03-23.822Z"/>
</svg>