<?xml version="1.0" encoding="UTF-8"?>
<svg id="a" data-name="Layer 1" xmlns="http://www.w3.org/2000/svg" width="4.994cm" height="5cm" viewBox="0 0 141.566 141.732">
  <path d="M91.014,71.005c0,18.102,.01,36.203-.009,54.305-.004,3.736-.903,7.223-3.168,10.284-2.936,3.967-7.061,5.749-11.795,5.962-4.024,.181-8.075,.313-12.109-.172-6.989-.84-12.318-6.139-13.162-13.207-.142-1.191-.208-2.398-.208-3.597-.011-36.011-.012-72.021-.005-108.032,0-4.05,.981-7.809,3.605-10.993C57.099,1.995,61.053,.337,65.524,.159c4.027-.16,8.079-.323,12.11,.173,7.079,.871,12.422,6.257,13.184,13.347,.128,1.193,.188,2.399,.188,3.599,.012,17.909,.008,35.818,.008,53.727Z"/>
  <path d="M101.106,80.826c0-14.732-.01-29.463,.007-44.195,.004-3.684,.862-7.146,3.067-10.168,2.932-4.017,7.089-5.869,11.888-6.082,4.025-.179,8.079-.327,12.109,.17,7.091,.875,12.425,6.247,13.191,13.34,.129,1.193,.189,2.399,.189,3.599,.01,29.222,.01,58.445,.006,87.667,0,3.586-.778,6.971-2.826,9.968-2.91,4.258-7.171,6.205-12.137,6.431-4.024,.183-8.075,.314-12.109-.172-7.001-.844-12.32-6.13-13.169-13.2-.143-1.191-.207-2.398-.208-3.597-.014-14.587-.009-29.174-.009-43.761Z"/>
  <path d="M40.463,101.25c0,8.04,.017,16.08-.008,24.119-.011,3.533-.829,6.859-2.859,9.81-2.895,4.208-7.115,6.13-12.02,6.373-4.023,.199-8.077,.337-12.108-.166-7.125-.89-12.335-6.026-13.239-13.123-.145-1.142-.214-2.301-.215-3.452-.014-15.935-.021-31.87,0-47.805,.005-3.631,.856-7.052,3.018-10.04,2.949-4.076,7.149-5.944,12.002-6.149,4.025-.17,8.078-.31,12.11,.178,7.011,.849,12.4,6.321,13.13,13.405,.123,1.194,.181,2.399,.183,3.599,.016,7.751,.008,15.502,.008,23.253Z"/>
</svg>